<?xml version="1.0" encoding="UTF-8"?><svg id="Layer_2" xmlns="http://www.w3.org/2000/svg" viewBox="0 0 106.71 115.61"><defs><style>.cls-1{fill:#fff;stroke-width:0px;}</style></defs><g id="Layer_1-2"><path class="cls-1" d="M91.43,56.02h-40.61l-5.62,8.99c-.93,1.49-3.39,1.49-4.32,0l-5.62-8.99h-15.14c-8.43,0-15.28-6.85-15.28-15.28V15.28C4.85,6.85,11.71,0,20.13,0h71.3c8.43,0,15.28,6.85,15.28,15.28v25.46c0,8.43-6.85,15.28-15.28,15.28h0ZM101.62,15.28c0-5.62-4.57-10.19-10.19-10.19H20.13c-5.62,0-10.19,4.57-10.19,10.19v25.46c0,5.62,4.57,10.19,10.19,10.19h16.55c.88,0,1.7.45,2.16,1.2l4.21,6.73,4.21-6.73c.47-.75,1.28-1.2,2.16-1.2h42.02c5.62,0,10.19-4.57,10.19-10.19V15.28Z"/><path class="cls-1" d="M76.97,105.77v-2.16h3.14c1.2,0,2.4-1.2,2.4-2.4v-19.19c0-1.2-1.2-2.4-2.4-2.4h-3.14c.72-6.24-3.36-12-9.84-12H14.83c-1.92,0-3.6.48-5.04,1.44v-13.43c0-3.12-4.8-3.12-4.8,0v23.99h-2.59c-1.2,0-2.4,1.2-2.4,2.4v19.19c0,1.2,1.2,2.4,2.4,2.4h2.59c-.72,6.24,3.36,12,9.84,12h52.31c5.52,0,9.84-4.32,9.84-9.84ZM9.79,105.77v-28.31c0-2.64,2.4-5.04,5.04-5.04h52.31c2.88,0,5.04,2.4,5.04,5.04v28.31c0,2.88-2.4,5.04-5.04,5.04H14.83c-2.64,0-5.04-2.4-5.04-5.04h0Z"/><path class="cls-1" d="M27.52,79.81c-8.66.33-8.66,12.74,0,13.06,8.66-.33,8.66-12.74,0-13.06Z"/><path class="cls-1" d="M53.09,79.81c-8.66.33-8.66,12.74,0,13.06,8.66-.33,8.66-12.74,0-13.06Z"/><path class="cls-1" d="M40.54,104.25c3.76,0,7.38-1.48,10.04-4.14,1.11-1.11,1.11-2.92,0-4.03-1.11-1.11-2.92-1.11-4.03,0-3.32,3.32-8.7,3.32-12.03,0-1.11-1.11-2.91-1.11-4.03,0-1.11,1.11-1.11,2.91,0,4.03,2.66,2.66,6.28,4.15,10.04,4.14h0Z"/><path class="cls-1" d="M78.77,21.27c-.32-.84-1.25-1.26-2.09-.94l-4.92,1.87-1.87-4.92c-.32-.84-1.25-1.26-2.09-.94s-1.26,1.25-.94,2.09l1.86,4.92-4.92,1.87c-.84.32-1.26,1.25-.94,2.09.16.42.47.73.85.9s.82.2,1.24.04l4.92-1.87,1.87,4.92c.16.42.47.73.85.9s.82.2,1.24.04c.84-.32,1.26-1.25.94-2.09l-1.87-4.92,4.92-1.87c.84-.32,1.26-1.26.94-2.1Z"/><path class="cls-1" d="M54.74,25.25c.11.51.46.92.92,1.12.09.04.2.08.31.1.61.14,1.24-.09,1.63-.58l11.64-14.76,12.73,5.72.11,2.62c.04.9.79,1.59,1.69,1.55.9-.04,1.59-.79,1.55-1.69l-.15-3.62c-.02-.61-.39-1.15-.95-1.41l-14.8-6.66c-.68-.3-1.48-.11-1.94.47l-10.31,13.08-1.03-4.59c-.19-.87-1.06-1.43-1.93-1.23-.87.19-1.42,1.06-1.23,1.93l1.77,7.92Z"/><path class="cls-1" d="M57.52,35.43c.79.3,1.66-.1,1.96-.89s-.1-1.66-.89-1.96l-7.79-2.93c-.79-.3-1.66.1-1.96.89l-4.29,11.41c-.3.79.1,1.66.89,1.96l7.79,2.93c.79.3,1.66-.1,1.96-.89s-.1-1.66-.89-1.96l-6.37-2.4,1.07-2.85,6.37,2.4c.79.3,1.66-.1,1.96-.89s-.1-1.66-.89-1.96l-6.37-2.4,1.07-2.85,6.37,2.39Z"/><path class="cls-1" d="M93.69,33.07c.83-.13,1.4-.91,1.27-1.74s-.91-1.4-1.74-1.27l-13.03,2.03c-.83.13-1.4.91-1.27,1.74s.91,1.4,1.74,1.27l1.29-.2,1.46,9.41c.13.83.91,1.4,1.74,1.27s1.4-.91,1.27-1.74l-1.46-9.41,4.46-.69,1.53,9.83c.04.23.12.45.26.64.65.92,1.38,1.16,1.89,1.2.14,0,.28,0,.58-.04.13-.02.28-.05.47-.08.83-.16,1.37-.96,1.21-1.78-.14-.74-.8-1.26-1.53-1.24l-1.4-8.99,1.26-.2Z"/><path class="cls-1" d="M21.43,15.83c-1,2.44.09,6.33,1.14,10.09,1.2,4.31,2.44,8.75,1,12.24-1.11,2.71-4.45,4.16-4.82,4.32-.84.35-1.81-.05-2.16-.89s.05-1.81.89-2.16c.62-.26,2.54-1.3,3.05-2.53,1-2.44-.09-6.33-1.14-10.09-1.2-4.31-2.44-8.75-1-12.24,1.6-3.87,7.42-5.49,8.08-5.67.89-.23,1.8.3,2.03,1.19.23.89-.3,1.8-1.19,2.03-1.26.31-5.05,1.7-5.88,3.7h0ZM36.65,27.9l2.04-4.94c.27-.82-.14-1.71-.94-2.03s-1.71.01-2.1.78l-2.04,4.94-4.94-2.04c-.82-.27-1.71.14-2.03.94s.01,1.71.78,2.1l4.94,2.04-2.04,4.94c-.21.41-.23.89-.07,1.32.16.43.49.78.92.95s.9.16,1.32-.03c.42-.19.73-.55.88-.99l2.04-4.94,4.94,2.04c.82.27,1.71-.14,2.03-.94s-.01-1.71-.78-2.1l-4.94-2.04Z"/></g></svg>